<?xml version="1.0" standalone="no"?>
<svg version="1.1" baseProfile="full" width="1000" height="1000" viewBox="0 0 1353.553390593274 1353.5533905932737" xmlns="http://www.w3.org/2000/svg">
<style>
  text {
    font-size: 18.535533905932738px;
  }

  @media (max-width: 600px) {
    text {
      font-size: 50.11844635310913px;
    }
  }

  @media (max-width: 800px) {
    text {
      font-size: 95.23689270621826px;
    }
  }
</style>
<rect width="100%" height="100%" fill="#fff" />
<g id="scene" transform="translate(676.776695296637 676.7766952966368)">
<circle cx="0" cy="0" r="1" stroke="rgba(64,128,64,0.5)" stroke-width="1" fill="rgba(64,128,64,0.5)"/>
<text x="-25" y="25">O</text>
<line x1="-500" x2="500" y1="0" y2="0" stroke-dasharray="1 6" stroke-linecap="round" stroke="rgba(64,128,64,0.5)" stroke-width="2"/>
<circle cx="-500" cy="0" r="1" stroke="rgba(64,128,64,0.5)" stroke-width="1" fill="rgba(64,128,64,0.5)"/>
<polygon points="500,0 491.5427664129268,3.0781812899310186 491.5427664129268,-3.0781812899310186" stroke="rgba(64,128,64,0.5)"  stroke-width="1.353553390593274" fill="rgba(64,128,64,0.5)"/>
<line x1="0" x2="0" y1="500" y2="-500" stroke-dasharray="1 6" stroke-linecap="round" stroke="rgba(64,128,64,0.5)" stroke-width="2"/>
<circle cx="0" cy="500" r="1" stroke="rgba(64,128,64,0.5)" stroke-width="1" fill="rgba(64,128,64,0.5)"/>
<polygon points="0,-500 3.0781812899310186,-491.5427664129268 -3.0781812899310186,-491.5427664129268" stroke="rgba(64,128,64,0.5)"  stroke-width="1.353553390593274" fill="rgba(64,128,64,0.5)"/>
<line x1="0" x2="353.5533905932738" y1="0" y2="-353.5533905932737" stroke-dasharray="1 6" stroke-linecap="round" stroke="rgba(64,128,64,0.5)" stroke-width="2"/>
<circle cx="0" cy="0" r="1" stroke="rgba(64,128,64,0.5)" stroke-width="1" fill="rgba(64,128,64,0.5)"/>
<polygon points="353.5533905932738,-353.5533905932737 349.74982623760746,-345.3966205099439 345.39662050994394,-349.7498262376074" stroke="rgba(64,128,64,0.5)"  stroke-width="1.353553390593274" fill="rgba(64,128,64,0.5)"/>
<line x1="335.58322690709826" x2="118.80355582556467" y1="-95.55430149453284" y2="-3.885335826642599"  stroke="black" stroke-width="1.353553390593274"/>
<line x1="118.80355582556467" x2="0" y1="-3.885335826642599" y2="-300"  stroke="black" stroke-width="1.353553390593274"/>
<line x1="0" x2="335.58322690709826" y1="-300" y2="-95.55430149453284"  stroke="black" stroke-width="1.353553390593274"/>
<line x1="118.80355582556467" x2="94.34442794805355" y1="-3.885335826642599" y2="-11.296241890278793"  stroke="black" stroke-width="1.353553390593274"/>
<line x1="94.34442794805355" x2="0" y1="-11.296241890278793" y2="-300"  stroke="black" stroke-width="1.353553390593274"/>
<line x1="0" x2="118.80355582556467" y1="-300" y2="-3.885335826642599"  stroke="black" stroke-width="1.353553390593274"/>
<line x1="93.29943658270663" x2="335.58322690709826" y1="-69.92708655885615" y2="-95.55430149453284" stroke-dasharray="1 6" stroke-linecap="round" stroke="black" stroke-width="1.353553390593274"/>
<line x1="94.34442794805355" x2="93.29943658270663" y1="-11.296241890278793" y2="-69.92708655885615" stroke-dasharray="1 6" stroke-linecap="round" stroke="black" stroke-width="1.353553390593274"/>
<line x1="93.29943658270663" x2="335.58322690709826" y1="-69.92708655885615" y2="-95.55430149453284" stroke-dasharray="1 6" stroke-linecap="round" stroke="black" stroke-width="1.353553390593274"/>
<line x1="0" x2="93.29943658270663" y1="-300" y2="-69.92708655885615" stroke-dasharray="1 6" stroke-linecap="round" stroke="black" stroke-width="1.353553390593274"/>
<line x1="94.34442794805355" x2="93.29943658270663" y1="-11.296241890278793" y2="-69.92708655885615" stroke-dasharray="1 6" stroke-linecap="round" stroke="black" stroke-width="1.353553390593274"/>
<line x1="93.29943658270663" x2="0" y1="-69.92708655885615" y2="-300" stroke-dasharray="1 6" stroke-linecap="round" stroke="black" stroke-width="1.353553390593274"/>
<line x1="160.50766181585578" x2="0" y1="-45.1657414425776" y2="-300"  stroke="black" stroke-width="1"/>
<line x1="0" x2="0" y1="-300" y2="0"  stroke="black" stroke-width="1"/>
</g>
</svg>