<?xml version="1.0" standalone="no"?>
<svg version="1.1" baseProfile="full" width="1000" height="1000" viewBox="0 0 900 900" xmlns="http://www.w3.org/2000/svg">
<style>
  text {
    font-size: 14px;
  }

  @media (max-width: 600px) {
    text {
      font-size: 35px;
    }
  }

  @media (max-width: 800px) {
    text {
      font-size: 65px;
    }
  }
</style>
<rect width="100%" height="100%" fill="#fff" />
<g id="scene" transform="translate(450 450)">
<circle cx="10" cy="-10" r="1" stroke="rgba(64,128,64,0.5)" stroke-width="1" fill="rgba(64,128,64,0.5)"/>
<text x="-15" y="15">O</text>
<line x1="-440" x2="460" y1="-10" y2="-10" stroke-dasharray="1 6" stroke-linecap="round" stroke="rgba(64,128,64,0.5)" stroke-width="2"/>
<circle cx="-440" cy="-10" r="1" stroke="rgba(64,128,64,0.5)" stroke-width="1" fill="rgba(64,128,64,0.5)"/>
<polygon points="460,-10 451.5427664129268,-6.921818710068981 451.5427664129268,-13.078181289931019" stroke="rgba(64,128,64,0.5)"  stroke-width="0.9" fill="rgba(64,128,64,0.5)"/>
<line x1="10" x2="10" y1="440" y2="-460" stroke-dasharray="1 6" stroke-linecap="round" stroke="rgba(64,128,64,0.5)" stroke-width="2"/>
<circle cx="10" cy="440" r="1" stroke="rgba(64,128,64,0.5)" stroke-width="1" fill="rgba(64,128,64,0.5)"/>
<polygon points="10,-460 13.078181289931019,-451.5427664129268 6.921818710068981,-451.5427664129268" stroke="rgba(64,128,64,0.5)"  stroke-width="0.9" fill="rgba(64,128,64,0.5)"/>
<line x1="10" x2="55.00000000000001" y1="-10" y2="-55.00000000000001" stroke-dasharray="1 6" stroke-linecap="round" stroke="rgba(64,128,64,0.5)" stroke-width="2"/>
<circle cx="10" cy="-10" r="1" stroke="rgba(64,128,64,0.5)" stroke-width="1" fill="rgba(64,128,64,0.5)"/>
<polygon points="55.00000000000001,-55.00000000000001 51.19643564433371,-46.84322991667016 46.84322991667016,-51.19643564433371" stroke="rgba(64,128,64,0.5)"  stroke-width="0.9" fill="rgba(64,128,64,0.5)"/>
<line x1="146.16416683405825" x2="173.51589130713248" y1="-100" y2="-100"  stroke="black" stroke-width="0.9"/>
<line x1="173.51589130713248" x2="73.04538761104648" y1="-100" y2="-100"  stroke="black" stroke-width="0.9"/>
<line x1="73.04538761104648" x2="146.16416683405825" y1="-100" y2="-100"  stroke="black" stroke-width="0.9"/>
<line x1="146.16416683405825" x2="173.51589130713248" y1="-12.379113259039926" y2="-22.73933821170496"  stroke="black" stroke-width="0.9"/>
<line x1="173.51589130713248" x2="173.51589130713248" y1="-22.73933821170496" y2="-100"  stroke="black" stroke-width="0.9"/>
<line x1="173.51589130713248" x2="146.16416683405825" y1="-100" y2="-100"  stroke="black" stroke-width="0.9"/>
<line x1="146.16416683405825" x2="146.16416683405825" y1="-100" y2="-12.379113259039926"  stroke="black" stroke-width="0.9"/>
<line x1="73.04538761104648" x2="146.16416683405825" y1="-24.240848244470232" y2="-12.379113259039926"  stroke="black" stroke-width="0.9"/>
<line x1="146.16416683405825" x2="146.16416683405825" y1="-12.379113259039926" y2="-100"  stroke="black" stroke-width="0.9"/>
<line x1="146.16416683405825" x2="73.04538761104648" y1="-100" y2="-100"  stroke="black" stroke-width="0.9"/>
<line x1="73.04538761104648" x2="73.04538761104648" y1="-100" y2="-24.240848244470232"  stroke="black" stroke-width="0.9"/>
<line x1="173.51589130713248" x2="73.04538761104648" y1="-22.73933821170496" y2="-24.240848244470232" stroke-dasharray="1 6" stroke-linecap="round" stroke="black" stroke-width="0.9"/>
<line x1="173.51589130713248" x2="73.04538761104648" y1="-22.73933821170496" y2="-24.240848244470232" stroke-dasharray="1 6" stroke-linecap="round" stroke="black" stroke-width="0.9"/>
</g>
</svg>